<?xml version="1.0" encoding="UTF-8" standalone="no"?>
<svg
   xmlns:dc="http://purl.org/dc/elements/1.1/"
   xmlns:cc="http://creativecommons.org/ns#"
   xmlns:rdf="http://www.w3.org/1999/02/22-rdf-syntax-ns#"
   xmlns:svg="http://www.w3.org/2000/svg"
   xmlns="http://www.w3.org/2000/svg"
   viewBox="0 0 154.71249 35.4375"
   height="35.4375"
   width="154.71249"
   xml:space="preserve"
   version="1.1"
   id="svg2"><metadata
     id="metadata8"><rdf:RDF><cc:Work
         rdf:about=""><dc:format>image/svg+xml</dc:format><dc:type
           rdf:resource="http://purl.org/dc/dcmitype/StillImage" /></cc:Work></rdf:RDF></metadata><defs
     id="defs6" /><g
     transform="matrix(1.25,0,0,-1.25,0,35.4375)"
     id="g10"><g
       transform="scale(0.1,0.1)"
       id="g12"><path
         id="path14"
         style="fill:#231f20;fill-opacity:1;fill-rule:nonzero;stroke:none"
         d="m 198.496,0 9.69531,0 0,283.469 -9.69531,0 0,-283.469 z" /><path
         id="path16"
         style="fill:#231f20;fill-opacity:1;fill-rule:nonzero;stroke:none"
         d="m 52.7227,189.23 c 4.6015,6.489 15.1484,26.77 45.9687,26.77 21.7186,0 33.2616,-8.652 37.8516,-12.977 13.254,-12.984 14.062,-31.64 14.062,-42.179 l 0,-89.9534 -55.7027,0 0,79.0664 c 0,1.598 -0.2539,20.078 -18.9257,20.078 -19.7461,0 -20.2735,-18.14 -20.2735,-22.988 l 0,-76.1564 -55.7031,0 0,141.6014 52.7227,0 0,-23.262" /><path
         id="path18"
         style="fill:#231f20;fill-opacity:1;fill-rule:nonzero;stroke:none"
         d="m 455.391,215.742 c -10.438,0 -18.907,-8.465 -18.907,-18.902 0,-10.438 8.469,-18.895 18.907,-18.895 9.57,0 13.808,6.899 13.925,6.547 5.411,-16.508 -23.293,-102.1365 -62.519,-102.1365 -12.695,0 -16.629,10.2734 -16.629,23.5745 0,15.722 4.539,31.758 10.293,53.523 6.043,21.465 11.48,42.031 14.519,53.039 l -37.792,0 c -5.157,-18.57 -42.141,-127.4217 -73.497,-127.4217 -3.925,0 -8.164,4.2383 -8.164,11.7969 0,4.2188 3.621,19.0428 5.45,24.4918 l 12.382,42.329 c 2.715,8.773 6.649,20.25 6.649,28.718 0,14.817 -10.274,23.289 -22.363,23.289 -34.168,0 -48.379,-30.539 -55.348,-42.937 l 5.758,-3.633 c 3.324,5.441 18.441,31.141 28.722,31.141 1.516,0 2.727,-1.809 2.727,-7.254 0,-3.625 -2.113,-11.785 -4.242,-19.344 L 262.266,130.734 C 260.145,122.863 255,107.746 255,96.8672 c 0,-19.9609 15.129,-29.9414 28.426,-29.9414 48.488,0 69.551,58.6722 76.504,75.5902 l 0.609,-0.606 c -0.91,-3.324 -5.148,-21.156 -5.148,-30.238 0,-25.9962 11.613,-44.7462 37.011,-44.7462 73.621,0 113.801,148.8162 62.989,148.8162" /></g></g></svg>